
<svg version="1.0" xmlns="http://www.w3.org/2000/svg"
 width="195.000000pt" height="195.000000pt" viewBox="0 0 195.000000 195.000000"
 preserveAspectRatio="xMidYMid meet">

<g transform="translate(0.000000,195.000000) scale(0.100000,-0.100000)"
fill="#ccc" stroke="none">
<path d="M512 233 c1 -37 2 -40 5 -15 2 17 8 32 13 32 5 0 7 7 4 15 -12 31
-24 13 -22 -32z"/>
<path d="M570 254 c0 -19 -4 -25 -15 -20 -13 4 -13 2 -5 -14 20 -37 30 -32 30
14 0 25 -2 46 -5 46 -3 0 -5 -12 -5 -26z"/>
<path d="M640 266 c-15 -19 -9 -56 12 -69 34 -22 66 41 36 71 -16 16 -33 15
-48 -2z m45 -7 c11 -16 -4 -59 -20 -59 -16 0 -31 43 -20 59 3 6 12 11 20 11 8
0 17 -5 20 -11z"/>
<path d="M752 273 c12 -3 18 -17 21 -46 l4 -42 1 42 c2 30 7 43 20 46 9 3 -1
5 -23 5 -22 0 -32 -2 -23 -5z"/>
<path d="M910 235 c0 -25 5 -45 10 -45 6 0 10 18 10 40 0 29 4 40 15 40 9 0
15 -9 15 -22 0 -17 3 -19 12 -10 16 16 -7 42 -38 42 -22 0 -24 -4 -24 -45z"/>
<path d="M1033 235 c0 -27 2 -40 4 -27 6 29 43 31 43 2 0 -11 5 -20 10 -20 6
0 10 20 10 45 0 25 -4 45 -10 45 -5 0 -10 -9 -10 -20 0 -29 -37 -27 -43 3 -2
12 -4 0 -4 -28z"/>
<path d="M1163 273 c-28 -11 -9 -83 21 -83 5 0 2 6 -8 13 -22 16 -18 60 7 65
14 3 17 -4 17 -35 1 -32 2 -35 11 -19 8 13 8 25 0 42 -10 23 -23 28 -48 17z"/>
<path d="M1268 273 c7 -2 12 -22 12 -44 0 -21 5 -39 10 -39 6 0 10 18 10 39 0
29 5 41 18 44 9 3 -1 5 -23 5 -22 0 -34 -2 -27 -5z"/>
<path d="M1380 266 c-15 -19 -9 -56 12 -69 34 -22 66 41 36 71 -16 16 -33 15
-48 -2z m45 -7 c10 -16 -4 -59 -19 -59 -17 0 -28 27 -21 51 7 21 30 25 40 8z"/>
</g>
</svg>
